<svg width="20" height="20" viewBox="0 0 20 20" fill="none" xmlns="http://www.w3.org/2000/svg">
<g id="link_FILL1_wght300_GRAD0_opsz20 1">
<path id="Vector" d="M8.83979 13.6155H6.03212C5.03187 13.6155 4.17925 13.2626 3.47425 12.5567C2.76925 11.8509 2.41675 10.9973 2.41675 9.99587C2.41675 8.99444 2.76925 8.14223 3.47425 7.43924C4.17925 6.73626 5.03187 6.38477 6.03212 6.38477H8.83979V7.46806H6.03212C5.33233 7.46806 4.73537 7.71512 4.24125 8.20925C3.74712 8.70337 3.50006 9.30033 3.50006 10.0001C3.50006 10.6999 3.74712 11.2969 4.24125 11.791C4.73537 12.2851 5.33233 12.5322 6.03212 12.5322H8.83979V13.6155ZM7.20842 10.5418V9.45847H12.7917V10.5418H7.20842ZM11.1603 13.6155V12.5322H13.968C14.6678 12.5322 15.2647 12.2851 15.7589 11.791C16.253 11.2969 16.5001 10.6999 16.5001 10.0001C16.5001 9.30033 16.253 8.70337 15.7589 8.20925C15.2647 7.71512 14.6678 7.46806 13.968 7.46806H11.1603V6.38477H13.968C14.9682 6.38477 15.8209 6.73767 16.5259 7.44349C17.2309 8.14933 17.5834 9.00295 17.5834 10.0044C17.5834 11.0058 17.2309 11.858 16.5259 12.561C15.8209 13.264 14.9682 13.6155 13.968 13.6155H11.1603Z" fill="#70727B"/>
</g>
</svg>
