<svg width="14" height="14" viewBox="0 0 14 14" fill="none" xmlns="http://www.w3.org/2000/svg">
<path d="M12.8895 13.6474L7.92638 8.68429C7.50971 9.00052 7.05282 9.24545 6.55571 9.41906C6.0586 9.59267 5.54565 9.67947 5.01686 9.67947C3.71707 9.67947 2.61209 9.22452 1.70192 8.3146C0.791753 7.40468 0.33667 6.30026 0.33667 5.00133C0.33667 3.70238 0.791628 2.59751 1.70155 1.68672C2.61146 0.775945 3.71589 0.320557 5.01484 0.320557C6.31377 0.320557 7.41863 0.775641 8.32942 1.68581C9.24021 2.59597 9.69561 3.70095 9.69561 5.00074C9.69561 5.54556 9.60613 6.06653 9.42717 6.56364C9.24821 7.06075 9.00596 7.50963 8.7004 7.91026L13.6635 12.8734L12.8895 13.6474ZM5.01613 8.59618C6.02041 8.59618 6.87084 8.24789 7.56742 7.55131C8.264 6.85472 8.6123 6.00429 8.6123 5.00002C8.6123 3.99574 8.264 3.14531 7.56742 2.44872C6.87084 1.75214 6.02041 1.40385 5.01613 1.40385C4.01185 1.40385 3.16142 1.75214 2.46484 2.44872C1.76827 3.14531 1.41998 3.99574 1.41998 5.00002C1.41998 6.00429 1.76827 6.85472 2.46484 7.55131C3.16142 8.24789 4.01185 8.59618 5.01613 8.59618Z" fill="#0B1125"/>
</svg>
