<svg width="10" height="10" viewBox="0 0 10 10" fill="none" xmlns="http://www.w3.org/2000/svg">
<path d="M5.02578 10C3.62275 10 2.43436 9.51572 1.46061 8.54716C0.486871 7.57861 0 6.39657 0 5.00102C0 3.60547 0.486871 2.42308 1.46061 1.45386C2.43436 0.484619 3.62275 0 5.02578 0C5.80929 0 6.5507 0.173295 7.25002 0.519885C7.94933 0.866464 8.53094 1.35557 8.99486 1.98721V0H10V4.0769H5.90208V3.07693H8.54898C8.19589 2.43334 7.7062 1.92628 7.07991 1.55576C6.45362 1.18524 5.76891 0.999987 5.02578 0.999987C3.90894 0.999987 2.95962 1.38888 2.17783 2.16666C1.39604 2.94444 1.00514 3.88889 1.00514 5C1.00514 6.11111 1.39604 7.05556 2.17783 7.83334C2.95962 8.61112 3.90894 9.00001 5.02578 9.00001C5.88575 9.00001 6.66196 8.75557 7.3544 8.26668C8.04685 7.77779 8.53267 7.13334 8.81188 6.33334H9.87114C9.56701 7.42136 8.968 8.30448 8.0741 8.9827C7.1802 9.6609 6.16409 10 5.02578 10Z" fill="#70727B"/>
</svg>
