<svg width="20" height="20" viewBox="0 0 20 20" fill="none" xmlns="http://www.w3.org/2000/svg">
<g id="favorite_FILL1_wght300_GRAD0_opsz24">
<path id="Vector" d="M9.99999 16.939L9.08013 16.1121C7.69873 14.8589 6.55637 13.782 5.65305 12.8814C4.74975 11.9807 4.03394 11.1792 3.50564 10.4767C2.97732 9.77427 2.60819 9.13351 2.39826 8.55446C2.18832 7.9754 2.08334 7.3878 2.08334 6.79165C2.08334 5.60897 2.48211 4.61885 3.27966 3.82131C4.0772 3.02377 5.06731 2.625 6.24999 2.625C6.97756 2.625 7.66506 2.79515 8.31249 3.13544C8.95992 3.47572 9.52242 3.96369 9.99999 4.59938C10.4776 3.96369 11.0401 3.47572 11.6875 3.13544C12.3349 2.79515 13.0224 2.625 13.75 2.625C14.9327 2.625 15.9228 3.02377 16.7203 3.82131C17.5179 4.61885 17.9166 5.60897 17.9166 6.79165C17.9166 7.3878 17.8117 7.9754 17.6017 8.55446C17.3918 9.13351 17.0227 9.77427 16.4943 10.4767C15.966 11.1792 15.2516 11.9807 14.3509 12.8814C13.4503 13.782 12.3066 14.8589 10.9198 16.1121L9.99999 16.939Z" fill="#E3E5EB"/>
</g>
</svg>
