<svg width="16" height="15" viewBox="0 0 16 15" fill="none" xmlns="http://www.w3.org/2000/svg">
<path id="Vector" d="M7.99999 14.939L7.08013 14.1121C5.69873 12.8589 4.55637 11.782 3.65305 10.8814C2.74975 9.98074 2.03394 9.17919 1.50564 8.47673C0.977316 7.77427 0.608191 7.13351 0.39826 6.55446C0.188316 5.9754 0.0833435 5.3878 0.0833435 4.79165C0.0833435 3.60897 0.482114 2.61885 1.27966 1.82131C2.0772 1.02377 3.06731 0.625 4.24999 0.625C4.97756 0.625 5.66506 0.795147 6.31249 1.13544C6.95992 1.47572 7.52242 1.96369 7.99999 2.59938C8.47756 1.96369 9.04006 1.47572 9.68749 1.13544C10.3349 0.795147 11.0224 0.625 11.75 0.625C12.9327 0.625 13.9228 1.02377 14.7203 1.82131C15.5179 2.61885 15.9166 3.60897 15.9166 4.79165C15.9166 5.3878 15.8117 5.9754 15.6017 6.55446C15.3918 7.13351 15.0227 7.77427 14.4943 8.47673C13.966 9.17919 13.2516 9.98074 12.3509 10.8814C11.4503 11.782 10.3066 12.8589 8.91984 14.1121L7.99999 14.939Z" fill="black"/>
</svg>
