<svg width="20" height="20" viewBox="0 0 20 20" fill="none" xmlns="http://www.w3.org/2000/svg">
<g id="wallet_FILL1_wght300_GRAD0_opsz24 2">
<path id="Vector" d="M4.94735 16C4.13441 16 3.43995 15.7264 2.86396 15.1792C2.28799 14.632 2 13.9723 2 13.2V6.79999C2 6.02769 2.28799 5.36795 2.86396 4.82076C3.43995 4.27359 4.13441 4 4.94735 4H15.0526C15.8656 4 16.5601 4.27359 17.136 4.82076C17.712 5.36795 18 6.02769 18 6.79999V13.2C18 13.9723 17.712 14.632 17.136 15.1792C16.5601 15.7264 15.8656 16 15.0526 16H4.94735ZM4.94735 7.00001H15.0526C15.3722 7.00001 15.6737 7.0436 15.9571 7.13077C16.2405 7.21796 16.5004 7.35027 16.7369 7.52771V6.79999C16.7369 6.35999 16.5719 5.98332 16.2421 5.66999C15.9123 5.35665 15.5158 5.19998 15.0526 5.19998H4.94735C4.4842 5.19998 4.0877 5.35665 3.75788 5.66999C3.42805 5.98332 3.26314 6.35999 3.26314 6.79999V7.52771C3.49958 7.35027 3.75949 7.21796 4.04289 7.13077C4.3263 7.0436 4.62779 7.00001 4.94735 7.00001ZM3.34087 9.3923L12.7984 11.5754C12.9139 11.6021 13.0308 11.6033 13.149 11.5792C13.2672 11.5551 13.3744 11.5057 13.4705 11.4308L16.502 9.01076C16.3638 8.76973 16.166 8.57434 15.9085 8.42459C15.651 8.27485 15.3657 8.19997 15.0526 8.19997H4.94735C4.55005 8.19997 4.20511 8.31049 3.91253 8.53152C3.61995 8.75256 3.4294 9.03948 3.34087 9.3923Z" fill="white"/>
</g>
</svg>
