<svg width="20" height="20" viewBox="0 0 20 20" fill="none" xmlns="http://www.w3.org/2000/svg">
<g id="link_off_FILL1_wght300_GRAD0_opsz20 1">
<path id="Vector" d="M15.4039 13.2949L14.5418 12.4696C15.1273 12.3126 15.6001 12.0042 15.9601 11.5442C16.3201 11.0842 16.5001 10.5694 16.5001 10C16.5001 9.30021 16.2544 8.70325 15.7629 8.20913C15.2715 7.715 14.6785 7.46794 13.9841 7.46794H11.1443V6.38465H13.9841C14.9785 6.38465 15.8271 6.73769 16.5296 7.44379C17.2321 8.14988 17.5834 9.00346 17.5834 10.0045C17.5834 10.712 17.3852 11.3571 16.9888 11.9399C16.5925 12.5227 16.0642 12.9743 15.4039 13.2949ZM12.6507 10.5416L11.5674 9.45835H12.7757V10.5416H12.6507ZM16.2886 17.8365L2.16357 3.71152L2.9376 2.9375L17.0626 17.0625L16.2886 17.8365ZM8.85585 13.6154H6.03216C5.03232 13.6154 4.1798 13.2627 3.4746 12.5575C2.76939 11.8523 2.41678 10.9998 2.41678 10C2.41678 9.14411 2.68735 8.39408 3.22849 7.74992C3.76963 7.10575 4.5183 6.62769 5.47449 6.31573H5.6668L6.75653 7.46794H6.05299C5.33931 7.46794 4.73541 7.715 4.24128 8.20913C3.74716 8.70325 3.5001 9.30021 3.5001 10C3.5001 10.6998 3.74716 11.2968 4.24128 11.7909C4.73541 12.285 5.33237 12.5321 6.03216 12.5321H8.85585V13.6154ZM7.22447 10.5416V9.45835H8.65557L9.71805 10.5416H7.22447Z" fill="#70727B"/>
</g>
</svg>
