<?xml version="1.0" ?><svg id="Layer_2" style="enable-background:new 0 0 32 32;" version="1.1" viewBox="0 0 32 32" xml:space="preserve" xmlns="http://www.w3.org/2000/svg" xmlns:xlink="http://www.w3.org/1999/xlink"><g><path d="M16,7c-4.9624,0-9,4.03711-9,9s4.0376,9,9,9c4.96289,0,9-4.03711,9-9S20.96289,7,16,7z M16,22c-3.30859,0-6-2.69141-6-6   s2.69141-6,6-6s6,2.69141,6,6S19.30859,22,16,22z"/><path d="M16,5.63867c0.82861,0,1.5-0.67188,1.5-1.5V2c0-0.82813-0.67139-1.5-1.5-1.5S14.5,1.17188,14.5,2v2.13867   C14.5,4.9668,15.17139,5.63867,16,5.63867z"/><path d="M6.55225,8.67285C6.84521,8.96582,7.229,9.1123,7.61279,9.1123s0.76807-0.14648,1.06104-0.43945   c0.58545-0.58594,0.58545-1.53613-0.00049-2.12109L7.16113,5.04004c-0.58594-0.58594-1.53564-0.58594-2.12158,0   C4.4541,5.62598,4.4541,6.57617,5.04004,7.16113L6.55225,8.67285z"/><path d="M5.63818,16c0-0.82813-0.67139-1.5-1.5-1.5H2c-0.82861,0-1.5,0.67188-1.5,1.5s0.67139,1.5,1.5,1.5h2.13818   C4.9668,17.5,5.63818,16.82813,5.63818,16z"/><path d="M6.55225,23.32715l-1.51221,1.51172c-0.58594,0.58496-0.58594,1.53516-0.00049,2.12109   c0.29297,0.29297,0.67725,0.43945,1.06104,0.43945s0.76758-0.14648,1.06055-0.43945l1.51221-1.51172   c0.58594-0.58496,0.58594-1.53516,0.00049-2.12109C8.08789,22.74121,7.13818,22.74121,6.55225,23.32715z"/><path d="M16,26.36133c-0.82861,0-1.5,0.67188-1.5,1.5V30c0,0.82813,0.67139,1.5,1.5,1.5s1.5-0.67188,1.5-1.5v-2.13867   C17.5,27.0332,16.82861,26.36133,16,26.36133z"/><path d="M25.44824,23.32715c-0.58594-0.58594-1.53516-0.58594-2.12109,0s-0.58594,1.53516,0,2.12109l1.51172,1.51172   c0.29297,0.29297,0.67676,0.43945,1.06055,0.43945s0.76758-0.14648,1.06055-0.43945c0.58594-0.58594,0.58594-1.53516,0-2.12109   L25.44824,23.32715z"/><path d="M30,14.5h-2.13867c-0.82813,0-1.5,0.67188-1.5,1.5s0.67188,1.5,1.5,1.5H30c0.82813,0,1.5-0.67188,1.5-1.5   S30.82813,14.5,30,14.5z"/><path d="M24.3877,9.1123c0.38379,0,0.76758-0.14648,1.06055-0.43945l1.51172-1.51172c0.58594-0.58594,0.58594-1.53516,0-2.12109   s-1.53516-0.58594-2.12109,0l-1.51172,1.51172c-0.58594,0.58594-0.58594,1.53516,0,2.12109   C23.62012,8.96582,24.00391,9.1123,24.3877,9.1123z"/></g></svg>