<svg width="135" height="24" viewBox="0 0 135 24" fill="none" xmlns="http://www.w3.org/2000/svg">
<path d="M5.14703 15.9L4.92703 11.46L10.947 5H15.307L9.30703 11.5L7.10703 13.8L5.14703 15.9ZM1.60703 19V5H5.52703V19H1.60703ZM11.007 19L6.44703 13.22L9.02703 10.46L15.607 19H11.007Z" fill="#EF2C3D"/>
<path d="M16.3661 19V7.8H19.5341V16.488H24.8781V19H16.3661ZM24.8971 19L29.8411 7.8H32.9611L37.9211 19H34.6251L30.7531 9.352H32.0011L28.1291 19H24.8971ZM27.6011 16.824L28.4171 14.488H33.8891L34.7051 16.824H27.6011ZM40.9481 19V14.264L41.6841 16.168L36.6761 7.8H40.0201L43.6361 13.864H41.7001L45.3321 7.8H48.4041L43.4121 16.168L44.1161 14.264V19H40.9481ZM49.163 19V7.8H52.331V16.488H57.675V19H49.163ZM58.7846 19V10.328H61.8246V19H58.7846ZM60.3046 9.368C59.7499 9.368 59.3019 9.21333 58.9606 8.904C58.6193 8.59467 58.4486 8.21067 58.4486 7.752C58.4486 7.29333 58.6193 6.90933 58.9606 6.6C59.3019 6.29067 59.7499 6.136 60.3046 6.136C60.8593 6.136 61.3073 6.28533 61.6486 6.584C61.9899 6.872 62.1606 7.24533 62.1606 7.704C62.1606 8.184 61.9899 8.584 61.6486 8.904C61.3179 9.21333 60.8699 9.368 60.3046 9.368ZM69.2562 19.144C68.4776 19.144 67.8269 18.984 67.3042 18.664C66.7922 18.344 66.4082 17.8533 66.1522 17.192C65.8962 16.5307 65.7682 15.6827 65.7682 14.648C65.7682 13.6347 65.9016 12.7973 66.1682 12.136C66.4456 11.4747 66.8456 10.984 67.3682 10.664C67.8909 10.344 68.5202 10.184 69.2562 10.184C70.0456 10.184 70.7602 10.3653 71.4002 10.728C72.0509 11.0907 72.5629 11.608 72.9362 12.28C73.3202 12.9413 73.5122 13.7307 73.5122 14.648C73.5122 15.576 73.3202 16.376 72.9362 17.048C72.5629 17.7093 72.0509 18.2267 71.4002 18.6C70.7602 18.9627 70.0456 19.144 69.2562 19.144ZM63.8002 19V7.128H66.8402V11.784L66.6802 14.648L66.6962 17.512V19H63.8002ZM68.6162 16.728C68.9576 16.728 69.2616 16.648 69.5282 16.488C69.8056 16.328 70.0242 16.0933 70.1842 15.784C70.3549 15.464 70.4402 15.0853 70.4402 14.648C70.4402 14.2107 70.3549 13.8427 70.1842 13.544C70.0242 13.2347 69.8056 13 69.5282 12.84C69.2616 12.68 68.9576 12.6 68.6162 12.6C68.2749 12.6 67.9656 12.68 67.6882 12.84C67.4216 13 67.2029 13.2347 67.0322 13.544C66.8722 13.8427 66.7922 14.2107 66.7922 14.648C66.7922 15.0853 66.8722 15.464 67.0322 15.784C67.2029 16.0933 67.4216 16.328 67.6882 16.488C67.9656 16.648 68.2749 16.728 68.6162 16.728ZM74.9252 19V10.328H77.8212V12.856L77.3892 12.136C77.6452 11.4853 78.0612 11 78.6372 10.68C79.2132 10.3493 79.9119 10.184 80.7332 10.184V12.92C80.5946 12.8987 80.4719 12.888 80.3652 12.888C80.2692 12.8773 80.1626 12.872 80.0452 12.872C79.4266 12.872 78.9252 13.0427 78.5412 13.384C78.1572 13.7147 77.9652 14.2587 77.9652 15.016V19H74.9252ZM86.7681 19V17.384L86.5601 16.984V14.008C86.5601 13.528 86.4108 13.16 86.1121 12.904C85.8241 12.6373 85.3601 12.504 84.7201 12.504C84.3041 12.504 83.8828 12.5733 83.4561 12.712C83.0294 12.84 82.6668 13.0213 82.3681 13.256L81.3441 11.192C81.8348 10.872 82.4214 10.6267 83.1041 10.456C83.7974 10.2747 84.4854 10.184 85.1681 10.184C86.5761 10.184 87.6641 10.5093 88.4321 11.16C89.2108 11.8 89.6001 12.808 89.6001 14.184V19H86.7681ZM84.2081 19.144C83.5148 19.144 82.9281 19.0267 82.4481 18.792C81.9681 18.5573 81.6001 18.2373 81.3441 17.832C81.0988 17.4267 80.9761 16.9733 80.9761 16.472C80.9761 15.9387 81.1094 15.48 81.3761 15.096C81.6534 14.7013 82.0748 14.4027 82.6401 14.2C83.2054 13.9867 83.9361 13.88 84.8321 13.88H86.8801V15.464H85.2481C84.7574 15.464 84.4108 15.544 84.2081 15.704C84.0161 15.864 83.9201 16.0773 83.9201 16.344C83.9201 16.6107 84.0214 16.824 84.2241 16.984C84.4268 17.144 84.7041 17.224 85.0561 17.224C85.3868 17.224 85.6854 17.144 85.9521 16.984C86.2294 16.8133 86.4321 16.5573 86.5601 16.216L86.9761 17.336C86.8161 17.9333 86.5014 18.3867 86.0321 18.696C85.5734 18.9947 84.9654 19.144 84.2081 19.144ZM91.519 19V10.328H94.415V12.856L93.983 12.136C94.239 11.4853 94.655 11 95.231 10.68C95.807 10.3493 96.5056 10.184 97.327 10.184V12.92C97.1883 12.8987 97.0656 12.888 96.959 12.888C96.863 12.8773 96.7563 12.872 96.639 12.872C96.0203 12.872 95.519 13.0427 95.135 13.384C94.751 13.7147 94.559 14.2587 94.559 15.016V19H91.519ZM100.335 22.248C99.8764 22.248 99.4124 22.1733 98.9431 22.024C98.4844 21.8853 98.1111 21.6987 97.8231 21.464L98.8791 19.336C99.0604 19.496 99.2684 19.6187 99.5031 19.704C99.7484 19.8 99.9884 19.848 100.223 19.848C100.554 19.848 100.815 19.7733 101.007 19.624C101.199 19.4747 101.364 19.24 101.503 18.92L101.903 17.912L102.143 17.608L105.087 10.328H107.983L104.239 19.352C103.94 20.0987 103.594 20.68 103.199 21.096C102.815 21.5227 102.383 21.8213 101.903 21.992C101.434 22.1627 100.911 22.248 100.335 22.248ZM101.519 19.368L97.6951 10.328H100.815L103.631 17.336L101.519 19.368Z" fill="white"/>
<g clip-path="url(#clip0_1_183)">
<path d="M113 19.5H117V4.5H113V19.5ZM113.599 5.10195H116.401V18.898H113.599V5.10195Z" fill="#BBBBBB"/>
<path d="M131 4.5V19.5H135V4.5H131ZM134.401 18.898H131.599V5.10195H134.401V18.898Z" fill="#BBBBBB"/>
<path d="M112 4.5H108V19.5H112V4.5Z" fill="#BBBBBB"/>
<path d="M122.317 4.54901L117 17.5L120.563 19.3175L125.88 6.36656L122.317 4.54901Z" fill="#BBBBBB"/>
<path d="M127.439 5.06865L121 17.5L124.364 19.6646L130.803 7.2333L127.439 5.06865Z" fill="#BBBBBB"/>
</g>
<defs>
<clipPath id="clip0_1_183">
<rect width="27" height="15" fill="white" transform="translate(108 4.5)"/>
</clipPath>
</defs>
</svg>
